<svg width="64" height="92" viewBox="0 0 64 92" fill="none" xmlns="http://www.w3.org/2000/svg">
<g filter="url(#filter0_d)">
<path d="M16 4V8H12V12H8V4H12V0H48V4H52V12H48V8H44V4H16Z" fill="#2E2E2E"/>
<path d="M20 32V28H28V32H20Z" fill="#2D1A09"/>
<path d="M36 32V28H44V32H36Z" fill="#2D1A09"/>
<path d="M32 56V52H52V56H32Z" fill="#C4C4C4"/>
<rect x="52" y="52" width="4" height="4" fill="#FF5C38"/>
<path fill-rule="evenodd" clip-rule="evenodd" d="M20 48V52H12V36H8V28H12V12H16V8H44V12H48V48H36V44H32V48H20ZM44 28V32H40V36H36V28H44ZM24 36H20V28H28V32H24V36Z" fill="#E4D1B4"/>
<path d="M16 60H12V52H20V48H32V52H24V56H32V60H44V68H24V64H16V60Z" fill="#5B5B59"/>
<path d="M20 32H24V36H20V32Z" fill="black"/>
<path d="M36 32H40V36H36V32Z" fill="black"/>
<path d="M44 8V4H16V8H44Z" fill="black"/>
<path d="M48 8H44V12H48V8Z" fill="black"/>
<path d="M52 12H48V48H36V44H32V48V52H56V48H52V12Z" fill="black"/>
<path d="M16 8H12V12H16V8Z" fill="black"/>
<path d="M12 12H8V28H12V12Z" fill="black"/>
<path d="M8 28H4V36H8V28Z" fill="black"/>
<path d="M24 64H20V68H24V64Z" fill="black"/>
<path d="M24 72H28V84H32V72H44V68H24V72Z" fill="black"/>
<path d="M44 68H48V60H56V56H32V60H44V68Z" fill="black"/>
<path d="M32 56V52H24V56H32Z" fill="black"/>
<path d="M60 52H56V56H60V52Z" fill="black"/>
<path d="M8 84H12V36H8V84Z" fill="black"/>
<path d="M12 60H16V64H20V68H24V72H28V84H12V60Z" fill="#D3B384"/>
</g>
<defs>
<filter id="filter0_d" x="0" y="0" width="64" height="92" filterUnits="userSpaceOnUse" color-interpolation-filters="sRGB">
<feFlood flood-opacity="0" result="BackgroundImageFix"/>
<feColorMatrix in="SourceAlpha" type="matrix" values="0 0 0 0 0 0 0 0 0 0 0 0 0 0 0 0 0 0 127 0" result="hardAlpha"/>
<feOffset dy="4"/>
<feGaussianBlur stdDeviation="2"/>
<feComposite in2="hardAlpha" operator="out"/>
<feColorMatrix type="matrix" values="0 0 0 0 0 0 0 0 0 0 0 0 0 0 0 0 0 0 0.25 0"/>
<feBlend mode="normal" in2="BackgroundImageFix" result="effect1_dropShadow"/>
<feBlend mode="normal" in="SourceGraphic" in2="effect1_dropShadow" result="shape"/>
</filter>
</defs>
</svg>
