<svg width="24" height="24" viewBox="0 0 24 24" fill="none" xmlns="http://www.w3.org/2000/svg">
<path fill-rule="evenodd" clip-rule="evenodd" d="M11 19H13V18H14V17H15V16H16V15H17V13H18V8H17V6H15V5H9V6H7V8H6V13H7V15H8V16H9V17H10V18H11V19ZM10 10H9V12H10V13H11V14H13V13H14V12H15V10H14V9H13V8H11V9H10V10Z" fill="white"/>
<path d="M7 15H8V16H7V15Z" fill="black"/>
<path d="M8 16H9V17H8V16Z" fill="black"/>
<path d="M9 17H10V18H9V17Z" fill="black"/>
<path d="M10 18H11V19H10V18Z" fill="black"/>
<path d="M13 18H14V19H13V18Z" fill="black"/>
<path d="M14 17H15V18H14V17Z" fill="black"/>
<path d="M15 16H16V17H15V16Z" fill="black"/>
<path d="M16 15H17V16H16V15Z" fill="black"/>
<path d="M11 10H10V9L11 9V10Z" fill="black"/>
<path d="M14 10H13V9H14V10Z" fill="black"/>
<path d="M14 13H13V12H14V13Z" fill="black"/>
<path d="M11 13H10V12H11V13Z" fill="black"/>
<path d="M10 10H9V12H10V10Z" fill="black"/>
<path d="M13 9V8L11 8V9H13Z" fill="black"/>
<path d="M14 12H15V10H14V12Z" fill="black"/>
<path d="M11 13V14H13V13H11Z" fill="black"/>
<path d="M5 13H6V8H5V13Z" fill="black"/>
<path d="M7 13H6V15H7V13Z" fill="black"/>
<path d="M7 6H6V8H7V6Z" fill="black"/>
<path d="M15 5V4H9V5H15Z" fill="black"/>
<path d="M9 6V5H7V6H9Z" fill="black"/>
<path d="M17 6V5H15V6H17Z" fill="black"/>
<path d="M18 6H17V8H18V6Z" fill="black"/>
<path d="M18 13H19V8H18V13Z" fill="black"/>
<path d="M17 15H18V13H17V15Z" fill="black"/>
<path d="M13 20V19H11V20H13Z" fill="black"/>
</svg>
