<svg width="24" height="24" viewBox="0 0 24 24" fill="none" xmlns="http://www.w3.org/2000/svg">
<path d="M7 9.33325V7.33325H17V9.33325H18V15.3333H17V16.3333H7V15.3333H6V9.33325H7Z" fill="white"/>
<path d="M6 15.3333H7V16.3333H6V15.3333Z" fill="black"/>
<path d="M17 15.3333H18V16.3333H17V15.3333Z" fill="black"/>
<path d="M15 10.3333H16V11.3333H15V10.3333Z" fill="black"/>
<path d="M14 11.3333H15V12.3333H14V11.3333Z" fill="black"/>
<path d="M16 9.33325H17V10.3333H16V9.33325Z" fill="black"/>
<path d="M7 9.33325H8V10.3333H7V9.33325Z" fill="black"/>
<path d="M8 10.3333H9V11.3333H8V10.3333Z" fill="black"/>
<path d="M9 11.3333H10V12.3333H9V11.3333Z" fill="black"/>
<path d="M18 15.3333H19V8.33325H18V7.33325H17V9.33325H18V15.3333Z" fill="black"/>
<path d="M14 13.3333V12.3333H10V13.3333H14Z" fill="black"/>
<path d="M6 8.33325H5V15.3333H6V9.33325H7V7.33325H6V8.33325Z" fill="black"/>
<path d="M7 6.33325V7.33325H17V6.33325H7Z" fill="black"/>
<path d="M7 16.3333V17.3333H17V16.3333H7Z" fill="black"/>
</svg>
